<?xml version="1.0" encoding="UTF-8" standalone="no"?>
<!DOCTYPE svg PUBLIC "-//W3C//DTD SVG 1.1//EN" "http://www.w3.org/Graphics/SVG/1.1/DTD/svg11.dtd">
<svg version="1.1" xmlns="http://www.w3.org/2000/svg" xmlns:xlink="http://www.w3.org/1999/xlink" preserveAspectRatio="xMidYMid meet" viewBox="0 0 300 300" width="300" height="300"><defs><path d="M206.11 30.39L206.11 30.01L206.14 29.64L206.17 29.26L206.23 28.9L206.29 28.53L206.37 28.18L206.47 27.82L206.57 27.48L206.69 27.14L206.83 26.8L206.97 26.47L207.13 26.15L207.3 25.84L207.48 25.53L207.67 25.23L207.87 24.94L208.09 24.66L208.31 24.39L208.54 24.12L208.79 23.87L209.04 23.62L209.3 23.39L209.58 23.16L209.86 22.95L210.14 22.74L210.44 22.55L210.74 22.36L211.06 22.19L211.37 22.04L211.7 21.89L212.03 21.76L212.37 21.63L212.71 21.53L213.06 21.43L213.42 21.35L213.78 21.28L214.14 21.23L214.51 21.19L214.89 21.17L215.26 21.16L251.89 21.16L252.27 21.17L252.64 21.19L253.01 21.23L253.38 21.28L253.74 21.35L254.09 21.43L254.44 21.53L254.79 21.63L255.13 21.76L255.46 21.89L255.78 22.04L256.1 22.19L256.41 22.36L256.72 22.55L257.01 22.74L257.3 22.95L257.58 23.16L257.85 23.39L258.12 23.62L258.37 23.87L258.61 24.12L258.85 24.39L259.07 24.66L259.28 24.94L259.49 25.23L259.68 25.53L259.86 25.84L260.03 26.15L260.19 26.47L260.33 26.8L260.46 27.14L260.58 27.48L260.69 27.82L260.79 28.18L260.87 28.53L260.93 28.9L260.98 29.26L261.02 29.64L261.04 30.01L261.05 30.39L261.05 127.31L297.68 168.85L261.05 168.85L261.05 298.07L179.51 298.07L179.51 298.05L179.52 297.64L179.52 207.99L179.51 207.58L179.49 207.17L179.45 206.77L179.39 206.37L179.33 205.98L179.24 205.59L179.15 205.21L179.04 204.84L178.91 204.47L178.77 204.11L178.62 203.76L178.46 203.41L178.29 203.07L178.1 202.74L177.9 202.42L177.69 202.11L177.47 201.8L177.24 201.51L177 201.22L176.75 200.94L176.49 200.68L176.22 200.42L175.94 200.18L175.65 199.95L175.35 199.73L175.04 199.52L174.73 199.32L174.41 199.14L174.08 198.97L173.74 198.81L173.4 198.66L173.05 198.53L172.7 198.42L172.34 198.32L171.97 198.23L171.6 198.16L171.22 198.1L170.84 198.06L170.45 198.03L170.06 198.03L132.25 198.03L131.86 198.03L131.48 198.06L131.1 198.1L130.72 198.16L130.35 198.23L129.98 198.32L129.62 198.42L129.27 198.53L128.92 198.66L128.57 198.81L128.24 198.97L127.91 199.14L127.59 199.32L127.27 199.52L126.97 199.73L126.67 199.95L126.38 200.18L126.1 200.42L125.83 200.68L125.57 200.94L125.32 201.22L125.08 201.51L124.84 201.8L124.62 202.11L124.41 202.42L124.22 202.74L124.03 203.07L123.85 203.41L123.69 203.76L123.54 204.11L123.4 204.47L123.28 204.84L123.17 205.21L123.07 205.59L122.99 205.98L122.92 206.37L122.87 206.77L122.83 207.17L122.81 207.58L122.8 207.99L122.8 297.64L122.81 298.05L122.81 298.07L41.26 298.07L41.26 168.85L4.63 168.85L151.16 2.7L206.11 65.01L206.11 30.39Z" id="a4C5MyIuUO"></path></defs><g><g><g><use xlink:href="#a4C5MyIuUO" opacity="1" fill="#3d5d29" fill-opacity="1"></use><g><use xlink:href="#a4C5MyIuUO" opacity="1" fill-opacity="0" stroke="#18bcbc" stroke-width="3" stroke-opacity="1"></use></g></g></g></g></svg>